<svg xmlns="http://www.w3.org/2000/svg" width="1600" height="1066" viewBox="0 0 1600 1066" role="img" aria-label="ウッドデッキのイメージ">
  <defs>
    <linearGradient id="sky" x1="0" y1="0" x2="0" y2="1">
      <stop offset="0" stop-color="#f8f6f1"/>
      <stop offset="0.6" stop-color="#f1ebe2"/>
      <stop offset="1" stop-color="#efe7dc"/>
    </linearGradient>
    <linearGradient id="wood" x1="0" y1="0" x2="1" y2="0">
      <stop offset="0" stop-color="#c26c3b" stop-opacity="0.85"/>
      <stop offset="1" stop-color="#1c1c1a" stop-opacity="0.18"/>
    </linearGradient>
    <linearGradient id="horizon" x1="0" y1="0" x2="0" y2="1">
      <stop offset="0" stop-color="#304c3c" stop-opacity="0.25"/>
      <stop offset="1" stop-color="#304c3c" stop-opacity="0.05"/>
    </linearGradient>
  </defs>

  <rect width="1600" height="1066" fill="url(#sky)"/>

  <rect x="0" y="540" width="1600" height="200" fill="url(#horizon)"/>
  <path d="M0 610 C 420 550, 740 560, 980 600 C 1180 635, 1340 635, 1600 600 L1600 740 L0 740 Z" fill="#304c3c" opacity="0.18"/>

  <g>
    <path d="M90 1066 L720 720 H880 L1510 1066 Z" fill="url(#wood)" opacity="0.65"/>
    <path d="M160 1066 L760 760 H840 L1440 1066 Z" fill="#c26c3b" opacity="0.12"/>
  </g>

  <g stroke="#1c1c1a" opacity="0.14" stroke-width="6">
    <path d="M160 1066 L760 760"/>
    <path d="M260 1066 L820 760"/>
    <path d="M360 1066 L880 760"/>
    <path d="M460 1066 L940 760"/>
    <path d="M560 1066 L1000 760"/>
    <path d="M660 1066 L1060 760"/>
    <path d="M760 1066 L1120 760"/>
    <path d="M860 1066 L1180 760"/>
    <path d="M960 1066 L1240 760"/>
    <path d="M1060 1066 L1300 760"/>
    <path d="M1160 1066 L1360 760"/>
  </g>

  <g opacity="0.6">
    <rect x="420" y="660" width="760" height="28" rx="14" fill="#ffffff" opacity="0.35"/>
    <rect x="460" y="690" width="680" height="16" rx="8" fill="#ffffff" opacity="0.22"/>
  </g>
</svg>
